<?xml version="1.0" encoding="UTF-8" standalone="no"?>
<!DOCTYPE svg PUBLIC "-//W3C//DTD SVG 1.1//EN"
 "http://www.w3.org/Graphics/SVG/1.1/DTD/svg11.dtd">
<!-- Generated by graphviz version 12.2.1 (20241206.2353)
 -->
<!-- Title: G Pages: 1 -->
<svg width="335pt" height="193pt"
 viewBox="0.00 0.00 335.45 192.95" xmlns="http://www.w3.org/2000/svg" xmlns:xlink="http://www.w3.org/1999/xlink">
<g id="graph0" class="graph" transform="scale(1 1) rotate(0) translate(21.6 171.35)">
<title>G</title>
<polygon fill="#111111" stroke="none" points="-21.6,21.6 -21.6,-171.35 313.85,-171.35 313.85,21.6 -21.6,21.6"/>
<!-- bs.mjs -->
<g id="node1" class="node">
<title>bs.mjs</title>
<path fill="none" stroke="#cfffac" d="M185.33,-149.75C185.33,-149.75 145.42,-149.75 145.42,-149.75 141.46,-149.75 137.5,-145.79 137.5,-141.83 137.5,-141.83 137.5,-133.92 137.5,-133.92 137.5,-129.96 141.46,-126 145.42,-126 145.42,-126 185.33,-126 185.33,-126 189.29,-126 193.25,-129.96 193.25,-133.92 193.25,-133.92 193.25,-141.83 193.25,-141.83 193.25,-145.79 189.29,-149.75 185.33,-149.75"/>
<text text-anchor="middle" x="165.38" y="-132.45" font-family="Arial" font-size="14.00" fill="#cfffac">bs.mjs</text>
</g>
<!-- disk.mjs -->
<g id="node2" class="node">
<title>disk.mjs</title>
<path fill="none" stroke="#c6c5fe" d="M190.21,-65.75C190.21,-65.75 140.54,-65.75 140.54,-65.75 136.58,-65.75 132.62,-61.79 132.62,-57.83 132.62,-57.83 132.62,-49.92 132.62,-49.92 132.62,-45.96 136.58,-42 140.54,-42 140.54,-42 190.21,-42 190.21,-42 194.17,-42 198.12,-45.96 198.12,-49.92 198.12,-49.92 198.12,-57.83 198.12,-57.83 198.12,-61.79 194.17,-65.75 190.21,-65.75"/>
<text text-anchor="middle" x="165.38" y="-48.45" font-family="Arial" font-size="14.00" fill="#c6c5fe">disk.mjs</text>
</g>
<!-- fs.mjs -->
<g id="node3" class="node">
<title>fs.mjs</title>
<path fill="none" stroke="#cfffac" d="M284.33,-65.75C284.33,-65.75 246.17,-65.75 246.17,-65.75 242.21,-65.75 238.25,-61.79 238.25,-57.83 238.25,-57.83 238.25,-49.92 238.25,-49.92 238.25,-45.96 242.21,-42 246.17,-42 246.17,-42 284.33,-42 284.33,-42 288.29,-42 292.25,-45.96 292.25,-49.92 292.25,-49.92 292.25,-57.83 292.25,-57.83 292.25,-61.79 288.29,-65.75 284.33,-65.75"/>
<text text-anchor="middle" x="265.25" y="-48.45" font-family="Arial" font-size="14.00" fill="#cfffac">fs.mjs</text>
</g>
<!-- disk.mjs&#45;&gt;fs.mjs -->
<g id="edge1" class="edge">
<title>disk.mjs&#45;&gt;fs.mjs</title>
<path fill="none" stroke="#757575" d="M198.42,-53.88C207.44,-53.88 217.33,-53.88 226.64,-53.88"/>
<polygon fill="#757575" stroke="#757575" points="226.5,-57.38 236.5,-53.88 226.5,-50.38 226.5,-57.38"/>
</g>
<!-- fdisk.mjs -->
<g id="node4" class="node">
<title>fdisk.mjs</title>
<path fill="none" stroke="#c6c5fe" d="M72.96,-107.75C72.96,-107.75 19.54,-107.75 19.54,-107.75 15.58,-107.75 11.62,-103.79 11.62,-99.83 11.62,-99.83 11.62,-91.92 11.62,-91.92 11.62,-87.96 15.58,-84 19.54,-84 19.54,-84 72.96,-84 72.96,-84 76.92,-84 80.88,-87.96 80.88,-91.92 80.88,-91.92 80.88,-99.83 80.88,-99.83 80.88,-103.79 76.92,-107.75 72.96,-107.75"/>
<text text-anchor="middle" x="46.25" y="-90.45" font-family="Arial" font-size="14.00" fill="#c6c5fe">fdisk.mjs</text>
</g>
<!-- io.mjs -->
<g id="node5" class="node">
<title>io.mjs</title>
<path fill="none" stroke="#cfffac" d="M184.46,-107.75C184.46,-107.75 146.29,-107.75 146.29,-107.75 142.33,-107.75 138.38,-103.79 138.38,-99.83 138.38,-99.83 138.38,-91.92 138.38,-91.92 138.38,-87.96 142.33,-84 146.29,-84 146.29,-84 184.46,-84 184.46,-84 188.42,-84 192.38,-87.96 192.38,-91.92 192.38,-91.92 192.38,-99.83 192.38,-99.83 192.38,-103.79 188.42,-107.75 184.46,-107.75"/>
<text text-anchor="middle" x="165.38" y="-90.45" font-family="Arial" font-size="14.00" fill="#cfffac">io.mjs</text>
</g>
<!-- fdisk.mjs&#45;&gt;io.mjs -->
<g id="edge2" class="edge">
<title>fdisk.mjs&#45;&gt;io.mjs</title>
<path fill="none" stroke="#757575" d="M81.13,-95.88C95.41,-95.88 112.1,-95.88 126.77,-95.88"/>
<polygon fill="#757575" stroke="#757575" points="126.5,-99.38 136.5,-95.88 126.5,-92.38 126.5,-99.38"/>
</g>
<!-- latin1.mjs -->
<g id="node6" class="node">
<title>latin1.mjs</title>
<path fill="none" stroke="#cfffac" d="M194.33,-23.75C194.33,-23.75 136.42,-23.75 136.42,-23.75 132.46,-23.75 128.5,-19.79 128.5,-15.83 128.5,-15.83 128.5,-7.92 128.5,-7.92 128.5,-3.96 132.46,0 136.42,0 136.42,0 194.33,0 194.33,0 198.29,0 202.25,-3.96 202.25,-7.92 202.25,-7.92 202.25,-15.83 202.25,-15.83 202.25,-19.79 198.29,-23.75 194.33,-23.75"/>
<text text-anchor="middle" x="165.38" y="-6.45" font-family="Arial" font-size="14.00" fill="#cfffac">latin1.mjs</text>
</g>
<!-- mkfsvfat.mjs -->
<g id="node7" class="node">
<title>mkfsvfat.mjs</title>
<path fill="none" stroke="#c6c5fe" d="M84.58,-149.75C84.58,-149.75 7.92,-149.75 7.92,-149.75 3.96,-149.75 0,-145.79 0,-141.83 0,-141.83 0,-133.92 0,-133.92 0,-129.96 3.96,-126 7.92,-126 7.92,-126 84.58,-126 84.58,-126 88.54,-126 92.5,-129.96 92.5,-133.92 92.5,-133.92 92.5,-141.83 92.5,-141.83 92.5,-145.79 88.54,-149.75 84.58,-149.75"/>
<text text-anchor="middle" x="46.25" y="-132.45" font-family="Arial" font-size="14.00" fill="#c6c5fe">mkfsvfat.mjs</text>
</g>
<!-- mkfsvfat.mjs&#45;&gt;bs.mjs -->
<g id="edge3" class="edge">
<title>mkfsvfat.mjs&#45;&gt;bs.mjs</title>
<path fill="none" stroke="#757575" d="M92.87,-137.88C103.79,-137.88 115.34,-137.88 125.9,-137.88"/>
<polygon fill="#757575" stroke="#757575" points="125.8,-141.38 135.8,-137.88 125.8,-134.38 125.8,-141.38"/>
</g>
<!-- mkfsvfat.mjs&#45;&gt;io.mjs -->
<g id="edge4" class="edge">
<title>mkfsvfat.mjs&#45;&gt;io.mjs</title>
<path fill="none" stroke="#757575" d="M81.76,-125.5C96.06,-120.37 112.68,-114.41 127.25,-109.19"/>
<polygon fill="#757575" stroke="#757575" points="128.26,-112.54 136.49,-105.87 125.9,-105.95 128.26,-112.54"/>
</g>
<!-- mount.mjs -->
<g id="node8" class="node">
<title>mount.mjs</title>
<path fill="none" stroke="#c6c5fe" d="M78.21,-65.75C78.21,-65.75 14.29,-65.75 14.29,-65.75 10.33,-65.75 6.38,-61.79 6.38,-57.83 6.38,-57.83 6.38,-49.92 6.38,-49.92 6.38,-45.96 10.33,-42 14.29,-42 14.29,-42 78.21,-42 78.21,-42 82.17,-42 86.12,-45.96 86.12,-49.92 86.12,-49.92 86.12,-57.83 86.12,-57.83 86.12,-61.79 82.17,-65.75 78.21,-65.75"/>
<text text-anchor="middle" x="46.25" y="-48.45" font-family="Arial" font-size="14.00" fill="#c6c5fe">mount.mjs</text>
</g>
<!-- mount.mjs&#45;&gt;disk.mjs -->
<g id="edge5" class="edge">
<title>mount.mjs&#45;&gt;disk.mjs</title>
<path fill="none" stroke="#757575" d="M86.58,-53.88C97.63,-53.88 109.7,-53.88 120.97,-53.88"/>
<polygon fill="#757575" stroke="#757575" points="120.84,-57.38 130.84,-53.88 120.84,-50.38 120.84,-57.38"/>
</g>
<!-- mount.mjs&#45;&gt;io.mjs -->
<g id="edge6" class="edge">
<title>mount.mjs&#45;&gt;io.mjs</title>
<path fill="none" stroke="#757575" d="M81.76,-66.25C96.06,-71.38 112.68,-77.34 127.25,-82.56"/>
<polygon fill="#757575" stroke="#757575" points="125.9,-85.8 136.49,-85.88 128.26,-79.21 125.9,-85.8"/>
</g>
<!-- mount.mjs&#45;&gt;latin1.mjs -->
<g id="edge7" class="edge">
<title>mount.mjs&#45;&gt;latin1.mjs</title>
<path fill="none" stroke="#757575" d="M81.76,-41.5C93.55,-37.27 106.92,-32.48 119.42,-28"/>
<polygon fill="#757575" stroke="#757575" points="120.46,-31.34 128.69,-24.67 118.09,-24.75 120.46,-31.34"/>
</g>
</g>
</svg>
