<?xml version="1.0" encoding="UTF-8" standalone="no"?>
<!DOCTYPE svg PUBLIC "-//W3C//DTD SVG 1.1//EN"
 "http://www.w3.org/Graphics/SVG/1.1/DTD/svg11.dtd">
<!-- Generated by graphviz version 12.2.1 (20241206.2353)
 -->
<!-- Title: G Pages: 1 -->
<svg width="335pt" height="172pt"
 viewBox="0.00 0.00 335.45 171.95" xmlns="http://www.w3.org/2000/svg" xmlns:xlink="http://www.w3.org/1999/xlink">
<g id="graph0" class="graph" transform="scale(1 1) rotate(0) translate(21.6 150.35)">
<title>G</title>
<polygon fill="#111111" stroke="none" points="-21.6,21.6 -21.6,-150.35 313.85,-150.35 313.85,21.6 -21.6,21.6"/>
<!-- bs.mjs -->
<g id="node1" class="node">
<title>bs.mjs</title>
<path fill="none" stroke="#cfffac" d="M185.33,-23.75C185.33,-23.75 145.42,-23.75 145.42,-23.75 141.46,-23.75 137.5,-19.79 137.5,-15.83 137.5,-15.83 137.5,-7.92 137.5,-7.92 137.5,-3.96 141.46,0 145.42,0 145.42,0 185.33,0 185.33,0 189.29,0 193.25,-3.96 193.25,-7.92 193.25,-7.92 193.25,-15.83 193.25,-15.83 193.25,-19.79 189.29,-23.75 185.33,-23.75"/>
<text text-anchor="middle" x="165.38" y="-6.45" font-family="Arial" font-size="14.00" fill="#cfffac">bs.mjs</text>
</g>
<!-- disk.mjs -->
<g id="node2" class="node">
<title>disk.mjs</title>
<path fill="none" stroke="#c6c5fe" d="M190.21,-107.75C190.21,-107.75 140.54,-107.75 140.54,-107.75 136.58,-107.75 132.62,-103.79 132.62,-99.83 132.62,-99.83 132.62,-91.92 132.62,-91.92 132.62,-87.96 136.58,-84 140.54,-84 140.54,-84 190.21,-84 190.21,-84 194.17,-84 198.12,-87.96 198.12,-91.92 198.12,-91.92 198.12,-99.83 198.12,-99.83 198.12,-103.79 194.17,-107.75 190.21,-107.75"/>
<text text-anchor="middle" x="165.38" y="-90.45" font-family="Arial" font-size="14.00" fill="#c6c5fe">disk.mjs</text>
</g>
<!-- fs.mjs -->
<g id="node3" class="node">
<title>fs.mjs</title>
<path fill="none" stroke="#cfffac" d="M284.33,-107.75C284.33,-107.75 246.17,-107.75 246.17,-107.75 242.21,-107.75 238.25,-103.79 238.25,-99.83 238.25,-99.83 238.25,-91.92 238.25,-91.92 238.25,-87.96 242.21,-84 246.17,-84 246.17,-84 284.33,-84 284.33,-84 288.29,-84 292.25,-87.96 292.25,-91.92 292.25,-91.92 292.25,-99.83 292.25,-99.83 292.25,-103.79 288.29,-107.75 284.33,-107.75"/>
<text text-anchor="middle" x="265.25" y="-90.45" font-family="Arial" font-size="14.00" fill="#cfffac">fs.mjs</text>
</g>
<!-- disk.mjs&#45;&gt;fs.mjs -->
<g id="edge1" class="edge">
<title>disk.mjs&#45;&gt;fs.mjs</title>
<path fill="none" stroke="#757575" d="M198.42,-95.88C207.44,-95.88 217.33,-95.88 226.64,-95.88"/>
<polygon fill="#757575" stroke="#757575" points="226.5,-99.38 236.5,-95.88 226.5,-92.38 226.5,-99.38"/>
</g>
<!-- fdisk.mjs -->
<g id="node4" class="node">
<title>fdisk.mjs</title>
<path fill="none" stroke="#cfffac" d="M72.96,-128.75C72.96,-128.75 19.54,-128.75 19.54,-128.75 15.58,-128.75 11.62,-124.79 11.62,-120.83 11.62,-120.83 11.62,-112.92 11.62,-112.92 11.62,-108.96 15.58,-105 19.54,-105 19.54,-105 72.96,-105 72.96,-105 76.92,-105 80.88,-108.96 80.88,-112.92 80.88,-112.92 80.88,-120.83 80.88,-120.83 80.88,-124.79 76.92,-128.75 72.96,-128.75"/>
<text text-anchor="middle" x="46.25" y="-111.45" font-family="Arial" font-size="14.00" fill="#cfffac">fdisk.mjs</text>
</g>
<!-- latin1.mjs -->
<g id="node5" class="node">
<title>latin1.mjs</title>
<path fill="none" stroke="#cfffac" d="M194.33,-65.75C194.33,-65.75 136.42,-65.75 136.42,-65.75 132.46,-65.75 128.5,-61.79 128.5,-57.83 128.5,-57.83 128.5,-49.92 128.5,-49.92 128.5,-45.96 132.46,-42 136.42,-42 136.42,-42 194.33,-42 194.33,-42 198.29,-42 202.25,-45.96 202.25,-49.92 202.25,-49.92 202.25,-57.83 202.25,-57.83 202.25,-61.79 198.29,-65.75 194.33,-65.75"/>
<text text-anchor="middle" x="165.38" y="-48.45" font-family="Arial" font-size="14.00" fill="#cfffac">latin1.mjs</text>
</g>
<!-- mkfsvfat.mjs -->
<g id="node6" class="node">
<title>mkfsvfat.mjs</title>
<path fill="none" stroke="#c6c5fe" d="M84.58,-23.75C84.58,-23.75 7.92,-23.75 7.92,-23.75 3.96,-23.75 0,-19.79 0,-15.83 0,-15.83 0,-7.92 0,-7.92 0,-3.96 3.96,0 7.92,0 7.92,0 84.58,0 84.58,0 88.54,0 92.5,-3.96 92.5,-7.92 92.5,-7.92 92.5,-15.83 92.5,-15.83 92.5,-19.79 88.54,-23.75 84.58,-23.75"/>
<text text-anchor="middle" x="46.25" y="-6.45" font-family="Arial" font-size="14.00" fill="#c6c5fe">mkfsvfat.mjs</text>
</g>
<!-- mkfsvfat.mjs&#45;&gt;bs.mjs -->
<g id="edge2" class="edge">
<title>mkfsvfat.mjs&#45;&gt;bs.mjs</title>
<path fill="none" stroke="#757575" d="M92.87,-11.88C103.79,-11.88 115.34,-11.88 125.9,-11.88"/>
<polygon fill="#757575" stroke="#757575" points="125.8,-15.38 135.8,-11.88 125.8,-8.38 125.8,-15.38"/>
</g>
<!-- mount.mjs -->
<g id="node7" class="node">
<title>mount.mjs</title>
<path fill="none" stroke="#c6c5fe" d="M78.21,-86.75C78.21,-86.75 14.29,-86.75 14.29,-86.75 10.33,-86.75 6.38,-82.79 6.38,-78.83 6.38,-78.83 6.38,-70.92 6.38,-70.92 6.38,-66.96 10.33,-63 14.29,-63 14.29,-63 78.21,-63 78.21,-63 82.17,-63 86.12,-66.96 86.12,-70.92 86.12,-70.92 86.12,-78.83 86.12,-78.83 86.12,-82.79 82.17,-86.75 78.21,-86.75"/>
<text text-anchor="middle" x="46.25" y="-69.45" font-family="Arial" font-size="14.00" fill="#c6c5fe">mount.mjs</text>
</g>
<!-- mount.mjs&#45;&gt;disk.mjs -->
<g id="edge3" class="edge">
<title>mount.mjs&#45;&gt;disk.mjs</title>
<path fill="none" stroke="#757575" d="M86.58,-81.93C97.74,-83.93 109.96,-86.12 121.33,-88.16"/>
<polygon fill="#757575" stroke="#757575" points="120.4,-91.55 130.86,-89.87 121.64,-84.66 120.4,-91.55"/>
</g>
<!-- mount.mjs&#45;&gt;latin1.mjs -->
<g id="edge4" class="edge">
<title>mount.mjs&#45;&gt;latin1.mjs</title>
<path fill="none" stroke="#757575" d="M86.58,-67.82C96.33,-66.08 106.88,-64.18 116.98,-62.37"/>
<polygon fill="#757575" stroke="#757575" points="117.4,-65.85 126.62,-60.64 116.16,-58.96 117.4,-65.85"/>
</g>
</g>
</svg>
