<?xml version="1.0" encoding="UTF-8" standalone="no"?>
<!DOCTYPE svg PUBLIC "-//W3C//DTD SVG 1.1//EN"
 "http://www.w3.org/Graphics/SVG/1.1/DTD/svg11.dtd">
<!-- Generated by graphviz version 12.2.1 (20241206.2353)
 -->
<!-- Title: G Pages: 1 -->
<svg width="456pt" height="193pt"
 viewBox="0.00 0.00 455.70 192.95" xmlns="http://www.w3.org/2000/svg" xmlns:xlink="http://www.w3.org/1999/xlink">
<g id="graph0" class="graph" transform="scale(1 1) rotate(0) translate(21.6 171.35)">
<title>G</title>
<polygon fill="#111111" stroke="none" points="-21.6,21.6 -21.6,-171.35 434.1,-171.35 434.1,21.6 -21.6,21.6"/>
<!-- bs.mjs -->
<g id="node1" class="node">
<title>bs.mjs</title>
<path fill="none" stroke="#cfffac" d="M185.33,-149.75C185.33,-149.75 145.42,-149.75 145.42,-149.75 141.46,-149.75 137.5,-145.79 137.5,-141.83 137.5,-141.83 137.5,-133.92 137.5,-133.92 137.5,-129.96 141.46,-126 145.42,-126 145.42,-126 185.33,-126 185.33,-126 189.29,-126 193.25,-129.96 193.25,-133.92 193.25,-133.92 193.25,-141.83 193.25,-141.83 193.25,-145.79 189.29,-149.75 185.33,-149.75"/>
<text text-anchor="middle" x="165.38" y="-132.45" font-family="Arial" font-size="14.00" fill="#cfffac">bs.mjs</text>
</g>
<!-- crawler.mjs -->
<g id="node2" class="node">
<title>crawler.mjs</title>
<path fill="none" stroke="#cfffac" d="M404.58,-86.75C404.58,-86.75 336.17,-86.75 336.17,-86.75 332.21,-86.75 328.25,-82.79 328.25,-78.83 328.25,-78.83 328.25,-70.92 328.25,-70.92 328.25,-66.96 332.21,-63 336.17,-63 336.17,-63 404.58,-63 404.58,-63 408.54,-63 412.5,-66.96 412.5,-70.92 412.5,-70.92 412.5,-78.83 412.5,-78.83 412.5,-82.79 408.54,-86.75 404.58,-86.75"/>
<text text-anchor="middle" x="370.38" y="-69.45" font-family="Arial" font-size="14.00" fill="#cfffac">crawler.mjs</text>
</g>
<!-- disk.mjs -->
<g id="node3" class="node">
<title>disk.mjs</title>
<path fill="none" stroke="#c6c5fe" d="M190.21,-65.75C190.21,-65.75 140.54,-65.75 140.54,-65.75 136.58,-65.75 132.62,-61.79 132.62,-57.83 132.62,-57.83 132.62,-49.92 132.62,-49.92 132.62,-45.96 136.58,-42 140.54,-42 140.54,-42 190.21,-42 190.21,-42 194.17,-42 198.12,-45.96 198.12,-49.92 198.12,-49.92 198.12,-57.83 198.12,-57.83 198.12,-61.79 194.17,-65.75 190.21,-65.75"/>
<text text-anchor="middle" x="165.38" y="-48.45" font-family="Arial" font-size="14.00" fill="#c6c5fe">disk.mjs</text>
</g>
<!-- fs.mjs -->
<g id="node4" class="node">
<title>fs.mjs</title>
<path fill="none" stroke="#c6c5fe" d="M284.33,-65.75C284.33,-65.75 246.17,-65.75 246.17,-65.75 242.21,-65.75 238.25,-61.79 238.25,-57.83 238.25,-57.83 238.25,-49.92 238.25,-49.92 238.25,-45.96 242.21,-42 246.17,-42 246.17,-42 284.33,-42 284.33,-42 288.29,-42 292.25,-45.96 292.25,-49.92 292.25,-49.92 292.25,-57.83 292.25,-57.83 292.25,-61.79 288.29,-65.75 284.33,-65.75"/>
<text text-anchor="middle" x="265.25" y="-48.45" font-family="Arial" font-size="14.00" fill="#c6c5fe">fs.mjs</text>
</g>
<!-- disk.mjs&#45;&gt;fs.mjs -->
<g id="edge1" class="edge">
<title>disk.mjs&#45;&gt;fs.mjs</title>
<path fill="none" stroke="#757575" d="M198.42,-53.88C207.44,-53.88 217.33,-53.88 226.64,-53.88"/>
<polygon fill="#757575" stroke="#757575" points="226.5,-57.38 236.5,-53.88 226.5,-50.38 226.5,-57.38"/>
</g>
<!-- fs.mjs&#45;&gt;crawler.mjs -->
<g id="edge2" class="edge">
<title>fs.mjs&#45;&gt;crawler.mjs</title>
<path fill="none" stroke="#757575" d="M292.54,-59.23C300.01,-60.75 308.42,-62.46 316.86,-64.18"/>
<polygon fill="#757575" stroke="#757575" points="315.92,-67.56 326.42,-66.13 317.32,-60.7 315.92,-67.56"/>
</g>
<!-- math.mjs -->
<g id="node5" class="node">
<title>math.mjs</title>
<path fill="none" stroke="#cfffac" d="M398.58,-44.75C398.58,-44.75 342.17,-44.75 342.17,-44.75 338.21,-44.75 334.25,-40.79 334.25,-36.83 334.25,-36.83 334.25,-28.92 334.25,-28.92 334.25,-24.96 338.21,-21 342.17,-21 342.17,-21 398.58,-21 398.58,-21 402.54,-21 406.5,-24.96 406.5,-28.92 406.5,-28.92 406.5,-36.83 406.5,-36.83 406.5,-40.79 402.54,-44.75 398.58,-44.75"/>
<text text-anchor="middle" x="370.38" y="-27.45" font-family="Arial" font-size="14.00" fill="#cfffac">math.mjs</text>
</g>
<!-- fs.mjs&#45;&gt;math.mjs -->
<g id="edge3" class="edge">
<title>fs.mjs&#45;&gt;math.mjs</title>
<path fill="none" stroke="#757575" d="M292.54,-48.52C301.74,-46.65 312.37,-44.48 322.73,-42.37"/>
<polygon fill="#757575" stroke="#757575" points="323.21,-45.85 332.31,-40.42 321.81,-38.99 323.21,-45.85"/>
</g>
<!-- io.mjs -->
<g id="node6" class="node">
<title>io.mjs</title>
<path fill="none" stroke="#cfffac" d="M184.46,-23.75C184.46,-23.75 146.29,-23.75 146.29,-23.75 142.33,-23.75 138.38,-19.79 138.38,-15.83 138.38,-15.83 138.38,-7.92 138.38,-7.92 138.38,-3.96 142.33,0 146.29,0 146.29,0 184.46,0 184.46,0 188.42,0 192.38,-3.96 192.38,-7.92 192.38,-7.92 192.38,-15.83 192.38,-15.83 192.38,-19.79 188.42,-23.75 184.46,-23.75"/>
<text text-anchor="middle" x="165.38" y="-6.45" font-family="Arial" font-size="14.00" fill="#cfffac">io.mjs</text>
</g>
<!-- latin1.mjs -->
<g id="node7" class="node">
<title>latin1.mjs</title>
<path fill="none" stroke="#cfffac" d="M194.33,-107.75C194.33,-107.75 136.42,-107.75 136.42,-107.75 132.46,-107.75 128.5,-103.79 128.5,-99.83 128.5,-99.83 128.5,-91.92 128.5,-91.92 128.5,-87.96 132.46,-84 136.42,-84 136.42,-84 194.33,-84 194.33,-84 198.29,-84 202.25,-87.96 202.25,-91.92 202.25,-91.92 202.25,-99.83 202.25,-99.83 202.25,-103.79 198.29,-107.75 194.33,-107.75"/>
<text text-anchor="middle" x="165.38" y="-90.45" font-family="Arial" font-size="14.00" fill="#cfffac">latin1.mjs</text>
</g>
<!-- mkdosfs.mjs -->
<g id="node8" class="node">
<title>mkdosfs.mjs</title>
<path fill="none" stroke="#c6c5fe" d="M84.58,-107.75C84.58,-107.75 7.92,-107.75 7.92,-107.75 3.96,-107.75 0,-103.79 0,-99.83 0,-99.83 0,-91.92 0,-91.92 0,-87.96 3.96,-84 7.92,-84 7.92,-84 84.58,-84 84.58,-84 88.54,-84 92.5,-87.96 92.5,-91.92 92.5,-91.92 92.5,-99.83 92.5,-99.83 92.5,-103.79 88.54,-107.75 84.58,-107.75"/>
<text text-anchor="middle" x="46.25" y="-90.45" font-family="Arial" font-size="14.00" fill="#c6c5fe">mkdosfs.mjs</text>
</g>
<!-- mkdosfs.mjs&#45;&gt;bs.mjs -->
<g id="edge4" class="edge">
<title>mkdosfs.mjs&#45;&gt;bs.mjs</title>
<path fill="none" stroke="#757575" d="M81.76,-108.25C95.85,-113.3 112.18,-119.16 126.59,-124.33"/>
<polygon fill="#757575" stroke="#757575" points="125.14,-127.53 135.74,-127.61 127.51,-120.94 125.14,-127.53"/>
</g>
<!-- mkdosfs.mjs&#45;&gt;io.mjs -->
<g id="edge5" class="edge">
<title>mkdosfs.mjs&#45;&gt;io.mjs</title>
<path fill="none" stroke="#757575" d="M78.45,-83.56C83.36,-81.02 88.22,-78.12 92.5,-74.88 112.1,-60.03 109.63,-48.64 128.5,-32.88 129.44,-32.09 130.42,-31.31 131.42,-30.55"/>
<polygon fill="#757575" stroke="#757575" points="133.3,-33.5 139.59,-24.98 129.36,-27.72 133.3,-33.5"/>
</g>
<!-- mkdosfs.mjs&#45;&gt;latin1.mjs -->
<g id="edge6" class="edge">
<title>mkdosfs.mjs&#45;&gt;latin1.mjs</title>
<path fill="none" stroke="#757575" d="M92.87,-95.88C100.72,-95.88 108.9,-95.88 116.81,-95.88"/>
<polygon fill="#757575" stroke="#757575" points="116.61,-99.38 126.61,-95.88 116.61,-92.38 116.61,-99.38"/>
</g>
<!-- fdisk.mjs -->
<g id="node9" class="node">
<title>fdisk.mjs</title>
<path fill="none" stroke="#c6c5fe" d="M74.08,-23.75C74.08,-23.75 18.42,-23.75 18.42,-23.75 14.46,-23.75 10.5,-19.79 10.5,-15.83 10.5,-15.83 10.5,-7.92 10.5,-7.92 10.5,-3.96 14.46,0 18.42,0 18.42,0 74.08,0 74.08,0 78.04,0 82,-3.96 82,-7.92 82,-7.92 82,-15.83 82,-15.83 82,-19.79 78.04,-23.75 74.08,-23.75"/>
<text text-anchor="middle" x="46.25" y="-6.45" font-family="Arial" font-size="14.00" fill="#c6c5fe">fdisk.mjs</text>
</g>
<!-- fdisk.mjs&#45;&gt;io.mjs -->
<g id="edge7" class="edge">
<title>fdisk.mjs&#45;&gt;io.mjs</title>
<path fill="none" stroke="#757575" d="M82.39,-11.88C96.39,-11.88 112.54,-11.88 126.77,-11.88"/>
<polygon fill="#757575" stroke="#757575" points="126.68,-15.38 136.68,-11.88 126.68,-8.38 126.68,-15.38"/>
</g>
<!-- mount.mjs -->
<g id="node10" class="node">
<title>mount.mjs</title>
<path fill="none" stroke="#c6c5fe" d="M78.21,-65.75C78.21,-65.75 14.29,-65.75 14.29,-65.75 10.33,-65.75 6.38,-61.79 6.38,-57.83 6.38,-57.83 6.38,-49.92 6.38,-49.92 6.38,-45.96 10.33,-42 14.29,-42 14.29,-42 78.21,-42 78.21,-42 82.17,-42 86.12,-45.96 86.12,-49.92 86.12,-49.92 86.12,-57.83 86.12,-57.83 86.12,-61.79 82.17,-65.75 78.21,-65.75"/>
<text text-anchor="middle" x="46.25" y="-48.45" font-family="Arial" font-size="14.00" fill="#c6c5fe">mount.mjs</text>
</g>
<!-- mount.mjs&#45;&gt;disk.mjs -->
<g id="edge8" class="edge">
<title>mount.mjs&#45;&gt;disk.mjs</title>
<path fill="none" stroke="#757575" d="M86.58,-53.88C97.63,-53.88 109.7,-53.88 120.97,-53.88"/>
<polygon fill="#757575" stroke="#757575" points="120.84,-57.38 130.84,-53.88 120.84,-50.38 120.84,-57.38"/>
</g>
<!-- mount.mjs&#45;&gt;io.mjs -->
<g id="edge9" class="edge">
<title>mount.mjs&#45;&gt;io.mjs</title>
<path fill="none" stroke="#757575" d="M81.76,-41.5C96.06,-36.37 112.68,-30.41 127.25,-25.19"/>
<polygon fill="#757575" stroke="#757575" points="128.26,-28.54 136.49,-21.87 125.9,-21.95 128.26,-28.54"/>
</g>
<!-- mount.mjs&#45;&gt;latin1.mjs -->
<g id="edge10" class="edge">
<title>mount.mjs&#45;&gt;latin1.mjs</title>
<path fill="none" stroke="#757575" d="M81.76,-66.25C93.55,-70.48 106.92,-75.27 119.42,-79.75"/>
<polygon fill="#757575" stroke="#757575" points="118.09,-83 128.69,-83.08 120.46,-76.41 118.09,-83"/>
</g>
</g>
</svg>
